# xmcd
#
# Track frame offsets:
#	150
#	15760
#	33947
#	54045
#	73210
#	92675
#	109090
#	129960
#	151587
#	169760
#	186360
#	200680
#	217757
#	233752
#	254230
#	271155
#
# Disc length: 3870 seconds
#
# Revision: 14
# Processed by: cddbd v1.5.2PL0 Copyright (c) Steve Scherf et al.
# Submitted via: EZCDAudioConverter 8.2.2.1
#
DISCID=cc0f1c10
DTITLE=ZEZÉ DI CAMARGO and LUCIANO - PRA SEMPRE EM MIM [CD 2-502581) COLUMBIA
DYEAR=2001
DGENRE=Sertanejo
TTITLE0=PRA SEMPRE EM MIM (YOU NEEDED ME) (BY GILMAR SINISTRO)
TTITLE1=FALA SÉRIO (BY GILMAR SINISTRO)
TTITLE2=TANTO PRA TE DIZER (BY GILMAR SINISTRO)
TTITLE3=NEM MAIS UMA DÚVIDA (BY GILMAR SINISTRO)
TTITLE4=O AMOR DEIXOU A GENTE (BY GILMAR SINISTRO)
TTITLE5=DIZ PRO MEU OLHAR (BY GILMAR SINISTRO)
TTITLE6=PASSOU DA CONTA (BY GILMAR SINISTRO)
TTITLE7=SÓ COM O OLHAR (BY GILMAR SINISTRO)
TTITLE8=SOLIDÃO A TRÊS (BY GILMAR SINISTRO)
TTITLE9=É DISSO QUE EU PRECISO (BY GILMAR SINISTRO)
TTITLE10=SÓ AMANDO É QUE SE VIVE (BY GILMAR SINISTRO)
TTITLE11=MENINO CANTADOR (BY GILMAR SINISTRO)
TTITLE12=REFÉM DO AMOR (BY GILMAR SINISTRO)
TTITLE13=MEU PAÍS (BY GILMAR SINISTRO)
TTITLE14=NÃO SOU O MESMO SEM VOCÊ POR PERTO (BY GILMAR SINISTRO)
TTITLE15=BELLA SENZ' ANIMA (BY GILMAR SINISTRO)
EXTD=
EXTT0=
EXTT1=
EXTT2=
EXTT3=
EXTT4=
EXTT5=
EXTT6=
EXTT7=
EXTT8=
EXTT9=
EXTT10=
EXTT11=
EXTT12=
EXTT13=
EXTT14=
EXTT15=
PLAYORDER=
